<?xml version="1.0" standalone="no"?>
<!DOCTYPE svg PUBLIC "-//W3C//DTD SVG 1.1//EN" "http://www.w3.org/Graphics/SVG/1.1/DTD/svg11.dtd">
<svg width="191.42000000000075mm" height="4360.000000000003mm"
 viewBox="0 0 191.42000000000075 4360.000000000003"
 xmlns="http://www.w3.org/2000/svg" version="1.1"
 xmlns:xlink="http://www.w3.org/1999/xlink">
<desc>Output from Flights of Ideas SVG Sketchup Plugin</desc>

  <path id="face0-cut"
 style="fill:none;stroke:#0000FF;stroke-width:1;stroke-miterlimit:4;stroke-dasharray:none;stroke-linejoin:round;stroke-linecap:round"
        d="M 10.0,960.0000000000009 L 103.00000000000051,960.0000000000009 L 103.00000000000057,460.0 L 181.42000000000058,460.0 L 181.4200000000007,10.0 L 10.000000000000057,10.0 L 10.0,960.0000000000009 "
  />
  <path id="face1-cut"
 style="fill:none;stroke:#0000FF;stroke-width:1;stroke-miterlimit:4;stroke-dasharray:none;stroke-linejoin:round;stroke-linecap:round"
        d="M 31.58000000000027,1920.000000000001 L 131.5799999999992,1920.000000000001 L 131.5799999999992,1420.000000000001 L 181.42000000000058,1420.000000000001 L 181.42000000000064,970.0000000000009 L 10.000000000000114,970.0000000000009 L 10.0,1420.000000000001 L 31.580000000000325,1420.000000000001 L 31.58000000000027,1920.000000000001 "
  />
  <path id="face2-cut"
 style="fill:none;stroke:#0000FF;stroke-width:1;stroke-miterlimit:4;stroke-dasharray:none;stroke-linejoin:round;stroke-linecap:round"
        d="M 45.579999999999984,2880.000000000001 L 145.58000000000033,2880.000000000001 L 145.58000000000033,2380.000000000001 L 181.42000000000064,2380.000000000001 L 181.42000000000075,1930.000000000001 L 10.0,1930.000000000001 L 10.000000000000057,2380.000000000001 L 45.58000000000004,2380.000000000001 L 45.579999999999984,2880.000000000001 "
  />
  <path id="face3-cut"
 style="fill:none;stroke:#0000FF;stroke-width:1;stroke-miterlimit:4;stroke-dasharray:none;stroke-linejoin:round;stroke-linecap:round"
        d="M 10.0,3840.000000000001 L 117.00000000000023,3840.000000000001 L 117.00000000000023,3340.000000000001 L 181.42000000000058,3340.000000000001 L 181.4200000000007,2890.000000000001 L 10.000000000000057,2890.000000000001 L 10.0,3840.000000000001 "
  />
  <path id="face4-cut"
 style="fill:none;stroke:#0000FF;stroke-width:1;stroke-miterlimit:4;stroke-dasharray:none;stroke-linejoin:round;stroke-linecap:round"
        d="M 110.00000000000023,3850.000000000001 L 74.4200000000003,3850.000000000001 L 10.0,3850.000000000001 L 10.0,4350.000000000003 L 74.4200000000003,4350.000000000003 L 110.00000000000023,4350.000000000003 L 110.00000000000023,3850.000000000001 "
  />
  <path id="face0-interior"
 style="fill:none;stroke:#FF0000;stroke-width:1;stroke-miterlimit:4;stroke-dasharray:none;stroke-linejoin:round;stroke-linecap:round"
        d="M 10.0,960.0000000000009 M 103.00000000000051,960.0000000000009 M 103.00000000000057,460.0 M 181.42000000000058,460.0 M 181.4200000000007,10.0 M 10.000000000000057,10.0 "
  />
  <path id="face1-interior"
 style="fill:none;stroke:#FF0000;stroke-width:1;stroke-miterlimit:4;stroke-dasharray:none;stroke-linejoin:round;stroke-linecap:round"
        d="M 31.58000000000027,1920.000000000001 M 131.5799999999992,1920.000000000001 M 131.5799999999992,1420.000000000001 M 181.42000000000058,1420.000000000001 M 181.42000000000064,970.0000000000009 M 10.000000000000114,970.0000000000009 M 10.0,1420.000000000001 M 31.580000000000325,1420.000000000001 "
  />
  <path id="face2-interior"
 style="fill:none;stroke:#FF0000;stroke-width:1;stroke-miterlimit:4;stroke-dasharray:none;stroke-linejoin:round;stroke-linecap:round"
        d="M 45.579999999999984,2880.000000000001 M 145.58000000000033,2880.000000000001 M 145.58000000000033,2380.000000000001 M 181.42000000000064,2380.000000000001 M 181.42000000000075,1930.000000000001 M 10.0,1930.000000000001 M 10.000000000000057,2380.000000000001 M 45.58000000000004,2380.000000000001 "
  />
  <path id="face3-interior"
 style="fill:none;stroke:#FF0000;stroke-width:1;stroke-miterlimit:4;stroke-dasharray:none;stroke-linejoin:round;stroke-linecap:round"
        d="M 10.0,3840.000000000001 M 117.00000000000023,3840.000000000001 M 117.00000000000023,3340.000000000001 M 181.42000000000058,3340.000000000001 M 181.4200000000007,2890.000000000001 M 10.000000000000057,2890.000000000001 "
  />
  <path id="face4-interior"
 style="fill:none;stroke:#FF0000;stroke-width:1;stroke-miterlimit:4;stroke-dasharray:none;stroke-linejoin:round;stroke-linecap:round"
        d="M 110.00000000000023,3850.000000000001 M 74.4200000000003,3850.000000000001 M 10.0,3850.000000000001 M 10.0,4350.000000000003 M 74.4200000000003,4350.000000000003 M 110.00000000000023,4350.000000000003 "
  />
  <path id="face0-interior"
 style="fill:none;stroke:#00FF00;stroke-width:1;stroke-miterlimit:4;stroke-dasharray:none;stroke-linejoin:round;stroke-linecap:round"
        d="M 10.0,960.0000000000009 M 103.00000000000051,960.0000000000009 M 103.00000000000057,460.0 M 181.42000000000058,460.0 M 181.4200000000007,10.0 M 10.000000000000057,10.0 "
  />
  <path id="face1-interior"
 style="fill:none;stroke:#00FF00;stroke-width:1;stroke-miterlimit:4;stroke-dasharray:none;stroke-linejoin:round;stroke-linecap:round"
        d="M 31.58000000000027,1920.000000000001 M 131.5799999999992,1920.000000000001 M 131.5799999999992,1420.000000000001 M 181.42000000000058,1420.000000000001 M 181.42000000000064,970.0000000000009 M 10.000000000000114,970.0000000000009 M 10.0,1420.000000000001 M 31.580000000000325,1420.000000000001 "
  />
  <path id="face2-interior"
 style="fill:none;stroke:#00FF00;stroke-width:1;stroke-miterlimit:4;stroke-dasharray:none;stroke-linejoin:round;stroke-linecap:round"
        d="M 45.579999999999984,2880.000000000001 M 145.58000000000033,2880.000000000001 M 145.58000000000033,2380.000000000001 M 181.42000000000064,2380.000000000001 M 181.42000000000075,1930.000000000001 M 10.0,1930.000000000001 M 10.000000000000057,2380.000000000001 M 45.58000000000004,2380.000000000001 "
  />
  <path id="face3-interior"
 style="fill:none;stroke:#00FF00;stroke-width:1;stroke-miterlimit:4;stroke-dasharray:none;stroke-linejoin:round;stroke-linecap:round"
        d="M 10.0,3840.000000000001 M 117.00000000000023,3840.000000000001 M 117.00000000000023,3340.000000000001 M 181.42000000000058,3340.000000000001 M 181.4200000000007,2890.000000000001 M 10.000000000000057,2890.000000000001 "
  />
  <path id="face4-interior"
 style="fill:none;stroke:#00FF00;stroke-width:1;stroke-miterlimit:4;stroke-dasharray:none;stroke-linejoin:round;stroke-linecap:round"
        d="M 110.00000000000023,3850.000000000001 M 74.4200000000003,3850.000000000001 M 10.0,3850.000000000001 M 10.0,4350.000000000003 M 74.4200000000003,4350.000000000003 M 110.00000000000023,4350.000000000003 "
  />
</svg>
